# xmcd CD database file
#
# Track frame offsets:
#	150
#	27425
#	41673
#	58775
#	80180
#	110207
#	130338
#	145440
#	160423
#	193088
#	204790
#
# Disc length: 3365 seconds
#
# Revision: 1
# Processed by: cddbd v1.5.2PL0 Copyright (c) Steve Scherf et al.
# Submitted via: CDex 1.51
#
DISCID=a90d230b
DTITLE=Goddam! - A tribute to Dr. Nina Simone
DYEAR=2006
DGENRE=Jazz
TTITLE0=Feeling Good
TTITLE1=Don't Let Me Be Misunderstood
TTITLE2=My Baby Just Cares For Me
TTITLE3=For A While
TTITLE4=Four Women
TTITLE5=Missisippi Goddam
TTITLE6=Fodder In Her Wings
TTITLE7=Dambala
TTITLE8=I Want A Little Sugar In My Bowl
TTITLE9=Ain't Got No - I GotLife
TTITLE10=My Sweet Lord
EXTD=YEAR: 2006
EXTT0=
EXTT1=
EXTT2=
EXTT3=
EXTT4=
EXTT5=
EXTT6=
EXTT7=
EXTT8=
EXTT9=
EXTT10=
PLAYORDER=
